# xmcd
#
# Track frame offsets:
#	150
#	14027
#	28842
#	42342
#	59156
#	79975
#	102101
#	121409
#	140007
#	150730
#	167005
#	180738
#
# Disc length: 2633 seconds
# Revision: 0
# Processed by: cddbd v1.5.2PL0 Copyright (c) Steve Scherf et al.
# Submitted via: dBpowerAMP V12.0
#
DISCID=aa0a470c
DTITLE=Rachelle Coba - Mother Blues
DYEAR=2013
DGENRE=Pop/Rock
TTITLE0=Never Been To Memphis
TTITLE1=Ain't Got Time (To Fall In Love)
TTITLE2=Worried Blues
TTITLE3=Between The Tracks
TTITLE4=Chicago
TTITLE5=Telephone Song
TTITLE6=Mother Blues
TTITLE7=A Man Like You
TTITLE8=View From Here
TTITLE9=Let Your Love Shine
TTITLE10=Never Been To Memphis (Remix)
TTITLE11=Between The Tracks (Remix)
EXTD=
EXTT0=
EXTT1=
EXTT2=
EXTT3=
EXTT4=
EXTT5=
EXTT6=
EXTT7=
EXTT8=
EXTT9=
EXTT10=
EXTT11=
PLAYORDER=
